<svg version="1.1" id="Layer_1" xmlns="http://www.w3.org/2000/svg" xmlns:xlink="http://www.w3.org/1999/xlink" x="0px" y="0px"
	 width="100%" viewBox="0 0 305 284" enable-background="new 0 0 305 284" xml:space="preserve">
<path fill="#010101" opacity="1.000000" stroke="none" 
	d="
M212.000000,285.000000 
	C141.333344,285.000000 71.166695,285.000000 1.000028,285.000000 
	C1.000019,190.333359 1.000019,95.666725 1.000009,1.000066 
	C102.666618,1.000044 204.333237,1.000044 305.999878,1.000022 
	C305.999939,95.666603 305.999939,190.333206 305.999969,284.999908 
	C274.833344,285.000000 243.666672,285.000000 212.000000,285.000000 
M172.323502,259.201355 
	C168.105789,258.906677 163.532974,259.569641 159.729080,258.159058 
	C138.072769,250.128357 116.629478,241.525284 95.042542,233.303818 
	C90.047157,231.401321 86.651276,228.388718 86.134933,223.035278 
	C85.610474,217.597656 88.588745,213.909302 93.173615,211.390259 
	C107.988976,203.250244 123.441063,201.560379 139.345505,207.533569 
	C157.237534,214.253220 174.968796,221.399734 192.807266,228.263672 
	C203.190079,232.258759 213.388321,237.120514 224.121826,239.737778 
	C247.570282,245.455475 270.862061,226.228195 270.952972,201.861008 
	C271.056793,174.035004 270.989532,146.208282 270.967987,118.381905 
	C270.951569,97.151375 258.771149,78.742790 238.985413,70.860031 
	C211.355804,59.852211 183.654587,49.017704 155.872711,38.400280 
	C130.228775,28.599907 103.252731,47.086731 102.795380,74.504082 
	C102.749573,77.250282 102.789238,79.997917 102.789238,82.907440 
	C96.189552,80.808060 90.346054,78.167686 84.231720,77.142319 
	C60.381779,73.142700 39.028397,91.668945 39.002941,115.978592 
	C38.973804,143.804947 38.979366,171.631393 39.001648,199.457779 
	C39.017986,219.856186 51.114182,238.363388 70.143814,245.997223 
	C95.742691,256.266327 121.474754,266.211121 147.269119,275.979645 
	C153.566620,278.364532 160.255066,280.571777 166.892502,281.041565 
	C185.575409,282.363892 203.321884,268.251556 206.005722,250.564484 
	C199.542114,248.067963 193.000137,245.541168 186.281677,242.946213 
	C184.708115,250.968948 180.432053,256.285980 172.323502,259.201355 
z"/>
<path fill="#FCFCFC" opacity="1.000000" stroke="none" 
	d="
M172.716812,259.116394 
	C180.432053,256.285980 184.708115,250.968948 186.281677,242.946213 
	C193.000137,245.541168 199.542114,248.067963 206.005722,250.564484 
	C203.321884,268.251556 185.575409,282.363892 166.892502,281.041565 
	C160.255066,280.571777 153.566620,278.364532 147.269119,275.979645 
	C121.474754,266.211121 95.742691,256.266327 70.143814,245.997223 
	C51.114182,238.363388 39.017986,219.856186 39.001648,199.457779 
	C38.979366,171.631393 38.973804,143.804947 39.002941,115.978592 
	C39.028397,91.668945 60.381779,73.142700 84.231720,77.142319 
	C90.346054,78.167686 96.189552,80.808060 102.789238,82.907440 
	C102.789238,79.997917 102.749573,77.250282 102.795380,74.504082 
	C103.252731,47.086731 130.228775,28.599907 155.872711,38.400280 
	C183.654587,49.017704 211.355804,59.852211 238.985413,70.860031 
	C258.771149,78.742790 270.951569,97.151375 270.967987,118.381905 
	C270.989532,146.208282 271.056793,174.035004 270.952972,201.861008 
	C270.862061,226.228195 247.570282,245.455475 224.121826,239.737778 
	C213.388321,237.120514 203.190079,232.258759 192.807266,228.263672 
	C174.968796,221.399734 157.237534,214.253220 139.345505,207.533569 
	C123.441063,201.560379 107.988976,203.250244 93.173615,211.390259 
	C88.588745,213.909302 85.610474,217.597656 86.134933,223.035278 
	C86.651276,228.388718 90.047157,231.401321 95.042542,233.303818 
	C116.629478,241.525284 138.072769,250.128357 159.729080,258.159058 
	C163.532974,259.569641 168.105789,258.906677 172.716812,259.116394 
M140.090485,120.420189 
	C122.438705,113.554718 104.792542,106.674759 87.133308,99.828514 
	C73.794731,94.657310 60.465210,102.579323 60.223934,116.486519 
	C59.816368,139.978149 59.947937,163.483200 60.167595,186.979675 
	C60.256874,196.529846 69.518456,201.362350 77.526001,196.240814 
	C93.583618,185.970535 101.776802,171.012100 102.605362,152.128403 
	C103.019295,142.694458 102.677444,133.227356 102.677444,123.157967 
	C110.055359,125.985916 116.841827,128.587158 123.890480,131.288895 
	C123.890480,135.548798 123.689888,139.717285 123.926010,143.860901 
	C124.835831,159.827057 131.544174,173.026627 143.662704,183.342651 
	C155.869492,193.733780 171.569321,196.606323 186.116425,203.195419 
	C186.116425,192.919769 186.379272,183.426224 186.051544,173.953094 
	C185.617523,161.406647 181.037842,150.355240 173.060608,140.635483 
	C164.561172,130.279495 153.060150,124.925583 140.090485,120.420189 
M207.796722,211.302155 
	C213.340179,213.515976 218.789261,216.015213 224.446259,217.885651 
	C237.179657,222.095825 249.473160,213.916550 249.706512,200.505188 
	C250.114822,177.038666 250.024414,153.557495 249.730804,130.087616 
	C249.610840,120.497292 240.367783,115.879837 232.242828,121.009605 
	C218.679062,129.573227 209.705353,141.952652 208.275528,157.747849 
	C206.691208,175.249451 207.540161,192.971313 207.796722,211.302155 
M135.547073,58.845730 
	C127.768669,62.057594 124.031807,68.024086 123.784470,76.286713 
	C123.674950,79.945084 123.981323,83.627617 123.683060,87.265083 
	C123.422501,90.442772 124.577713,91.946518 127.547607,93.070343 
	C141.826019,98.473328 155.942215,104.309700 170.259689,109.603561 
	C186.308319,115.537521 201.929214,114.040588 216.880814,105.738083 
	C221.255371,103.308914 224.200516,99.734161 223.845718,94.539001 
	C223.481216,89.201973 220.225098,85.910789 215.253677,84.005974 
	C193.554840,75.692024 171.872284,67.334457 150.233704,58.865242 
	C145.520889,57.020672 140.948761,56.527256 135.547073,58.845730 
z"/>
<path fill="#030303" opacity="1.000000" stroke="none" 
	d="
M140.436127,120.598251 
	C153.060150,124.925583 164.561172,130.279495 173.060608,140.635483 
	C181.037842,150.355240 185.617523,161.406647 186.051544,173.953094 
	C186.379272,183.426224 186.116425,192.919769 186.116425,203.195419 
	C171.569321,196.606323 155.869492,193.733780 143.662704,183.342651 
	C131.544174,173.026627 124.835831,159.827057 123.926010,143.860901 
	C123.689888,139.717285 123.890480,135.548798 123.890480,131.288895 
	C116.841827,128.587158 110.055359,125.985916 102.677444,123.157967 
	C102.677444,133.227356 103.019295,142.694458 102.605362,152.128403 
	C101.776802,171.012100 93.583618,185.970535 77.526001,196.240814 
	C69.518456,201.362350 60.256874,196.529846 60.167595,186.979675 
	C59.947937,163.483200 59.816368,139.978149 60.223934,116.486519 
	C60.465210,102.579323 73.794731,94.657310 87.133308,99.828514 
	C104.792542,106.674759 122.438705,113.554718 140.436127,120.598251 
z"/>
<path fill="#040404" opacity="1.000000" stroke="none" 
	d="
M207.563126,210.949707 
	C207.540161,192.971313 206.691208,175.249451 208.275528,157.747849 
	C209.705353,141.952652 218.679062,129.573227 232.242828,121.009605 
	C240.367783,115.879837 249.610840,120.497292 249.730804,130.087616 
	C250.024414,153.557495 250.114822,177.038666 249.706512,200.505188 
	C249.473160,213.916550 237.179657,222.095825 224.446259,217.885651 
	C218.789261,216.015213 213.340179,213.515976 207.563126,210.949707 
z"/>
<path fill="#030303" opacity="1.000000" stroke="none" 
	d="
M135.877594,58.635029 
	C140.948761,56.527256 145.520889,57.020672 150.233704,58.865242 
	C171.872284,67.334457 193.554840,75.692024 215.253677,84.005974 
	C220.225098,85.910789 223.481216,89.201973 223.845718,94.539001 
	C224.200516,99.734161 221.255371,103.308914 216.880814,105.738083 
	C201.929214,114.040588 186.308319,115.537521 170.259689,109.603561 
	C155.942215,104.309700 141.826019,98.473328 127.547607,93.070343 
	C124.577713,91.946518 123.422501,90.442772 123.683060,87.265083 
	C123.981323,83.627617 123.674950,79.945084 123.784470,76.286713 
	C124.031807,68.024086 127.768669,62.057594 135.877594,58.635029 
z"/>
</svg>